# AST/ASF file generated using VICON BodyLanguage
# -----------------------------------------------
:version 1.10
:name VICON
:units
  mass 1.0
  length 0.45
  angle deg
:documentation
   .ast/.asf automatically generated from VICON data using
   VICON BodyBuilder and BodyLanguage model FoxedUp or BRILLIANT.MOD
:root
   order TX TY TZ RX RY RZ
   axis XYZ
   position 0 0 0  
   orientation 0 0 0 
:bonedata
  begin
     id 1 
     name lhipjoint
     direction 0.700308 -0.549349 0.455834 
     length 2.59063 
     axis 0 0 0  XYZ
  end
  begin
     id 2 
     name lfemur
     direction 0.34202 -0.939693 0  
     length 6.31066  
     axis 0 0 20  XYZ
    dof rx ry rz
    limits (-160.0 20.0)
           (-70.0 70.0)
           (-60.0 70.0)
  end
  begin
     id 3 
     name ltibia
     direction 0.34202 -0.939693 0   
     length 7.36093   
     axis 0 0 20   XYZ
    dof rx
    limits (-10.0 170.0)
  end
  begin
     id 4 
     name lfoot
     direction 0.0905332 -0.248738 0.96433   
     length 2.0233   
     axis -90 7.62852e-016 20   XYZ
    dof rx rz
    limits (-45.0 90.0)
           (-70.0 20.0)
  end
  begin
     id 5 
     name ltoes
     direction 1.53573e-011 -4.21855e-011 1   
     length 1.01524   
     axis -90 7.62852e-016 20   XYZ
    dof rx
    limits (-90.0 20.0)
  end
  begin
     id 6 
     name rhipjoint
     direction -0.61416 -0.607328 0.503944   
     length 2.34332  
     axis 0 0 0  XYZ 
  end
  begin
     id 7 
     name rfemur
     direction -0.34202 -0.939693 0   
     length 6.58548   
     axis 0 0 -20   XYZ
    dof rx ry rz
    limits (-160.0 20.0)
           (-70.0 70.0)
           (-70.0 60.0)
  end
  begin
     id 8 
     name rtibia
     direction -0.34202 -0.939693 0   
     length 7.20707   
     axis 0 0 -20   XYZ
    dof rx
    limits (-10.0 170.0)
 end
 begin
     id 9 
     name rfoot
     direction -0.136772 -0.375778 0.916561   
     length 1.92184  
     axis -90 -7.62852e-016 -20   XYZ
    dof rx rz
    limits (-45.0 90.0)
           (-20.0 70.0)
  end
  begin
     id 10 
     name rtoes
     direction -1.53535e-011 -4.21828e-011 1   
     length 0.951089   
     axis -90 -7.62852e-016 -20   XYZ
    dof rx
    limits (-90.0 20.0)
  end
  begin
     id 11 
     name lowerback
     direction -0.0444974 0.988086 -0.147332   
     length 1.9609   
     axis 0 0 0   XYZ
    dof rx ry rz
    limits (-20.0 45.0)
           (-30.0 30.0)
           (-30.0 30.0)
  end
  begin
     id 12 
     name upperback
     direction 0.00613146 0.999513 0.0306081   
     length 1.94944   
     axis 0 0 0   XYZ
    dof rx ry rz
    limits (-20.0 45.0)
           (-30.0 30.0)
           (-30.0 30.0)
  end
  begin
     id 13 
     name thorax
     direction 0.0254621 0.994518 0.101418   
     length 2.0119   
     axis 0 0 0   XYZ
    dof rx ry rz
    limits (-20.0 45.0)
           (-30.0 30.0)
           (-30.0 30.0)
  end
  begin
     id 14 
     name lowerneck
     direction 0.0168698 0.977854 0.208608   
     length 1.6375   
     axis 0 0 0   XYZ
    dof rx ry rz
    limits (-20.0 45.0)
           (-30.0 30.0)
           (-30.0 30.0)
  end
  begin
     id 15 
     name upperneck
     direction -0.0283988 0.989338 -0.142843   
     length 1.6851   
     axis 0 0 0   XYZ
    dof rx ry rz
    limits (-20.0 45.0)
           (-30.0 30.0)
           (-30.0 30.0)
  end
  begin
     id 16
     name head
     direction -0.0129422 0.99741 -0.0707489  
     length 1.69029  
     axis 0 0 0   XYZ
    dof rx ry rz
    limits (-20.0 45.0)
           (-30.0 30.0)
           (-30.0 30.0)
  end
  begin
     id 17 
     name lclavicle
     direction 0.820295 0.564628 -0.0911715  
     length 3.16484  
     axis 0 0 0   XYZ
    dof ry rz
    limits (-20.0 10.0)
           (0.0 20.0)
  end
  begin
     id 18 
     name lhumerus
     direction 1 -4.48969e-011 1.00186e-027   
     length 5.17853   
     axis 180 -30 -90   XYZ
    dof rx ry rz
    limits (-60.0 90.0)
           (-90.0 90.0)
           (-90.0 90.0)
  end
  begin
     id 19
     name lradius
     direction 1 -4.48966e-011 -1.52922e-027   
     length 3.40399   
     axis 180 -30 -90   XYZ
    dof rx
    limits (-10.0 170.0)
  end
  begin
     id 20
     name lwrist
     direction 1 -4.48981e-011 -3.80893e-027   
     length 1.70199   
     axis 1.1049e-015 90 90   XYZ
    dof ry
    limits (-180.0 0.0)
 end
  begin
     id 21 
     name lhand
     direction 1 -4.48957e-011 -7.61786e-027   
     length 0.708964   
     axis 4.86085e-015 90 90   XYZ
    dof rx rz
    limits (-90.0 90.0)
           (-45.0 45.0)
  end
  begin
     id 22 
     name lfingers
     direction 1 -4.48929e-011 -1.52357e-026   
     length 0.571585   
     axis 9.7217e-015 90 90   XYZ
    dof rx
    limits (0.0 90.0)
  end
  begin
     id 23
     name lthumb
     direction 0.707107 -6.34905e-011 0.707107   
     length 0.820685   
     axis -90 45 2.85299e-015   XYZ
    dof rx rz
    limits (-45.0 45.0)
           (-45.0 45.0)
  end
  begin
     id 24 
     name rclavicle
     direction -0.858602 0.463947 -0.218075   
     length 3.35137  
     axis 0 0 0   XYZ 
    dof ry rz
    limits (-10.0 20.0)
           (-20.0 0.0)
  end
  begin
     id 25 
     name rhumerus
     direction -1 -4.48969e-011 -1.98511e-027  
     length 5.42351   
     axis 180 30 90   XYZ
    dof rx ry rz
    limits (-90.0 60.0)
           (-90.0 90.0)
           (-90.0 90.0)
  end
  begin
     id 26 
     name rradius
     direction -1 -4.48961e-011 -2.82624e-027   
     length 3.42066   
     axis 180 30 90   XYZ
    dof rx
    limits (-10.0 170.0)
  end
  begin
     id 27 
     name rwrist
     direction -1 -4.48966e-011 -3.80893e-027   
     length 1.71033   
     axis 1.1049e-015 -90 -90   XYZ
    dof ry
    limits (-180.0 0.0)
  end
  begin
     id 28
     name rhand
     direction -1 -4.48964e-011 -7.61786e-027   
     length 0.743608   
     axis 4.86085e-015 -90 -90   XYZ
    dof rx rz
    limits (-90.0 90.0)
           (-45.0 45.0)
  end
  begin
     id 29
     name rfingers
     direction -1 -4.48961e-011 -1.52357e-026   
     length 0.599516   
     axis 9.7217e-015 -90 -90   XYZ
    dof rx
    limits (0.0 90.0)
  end
  begin
     id 30
     name rthumb
     direction -0.707107 -6.34913e-011 0.707107   
     length 0.860789   
     axis -90 -45 -2.85299e-015   XYZ
    dof rx rz
    limits (-45.0 45.0)
           (-45.0 45.0)
  end
:hierarchy
  begin
    root lhipjoint rhipjoint lowerback
    lhipjoint lfemur
    lfemur ltibia
    ltibia lfoot
    lfoot ltoes
    rhipjoint rfemur
    rfemur rtibia
    rtibia rfoot
    rfoot rtoes
    lowerback upperback
    upperback thorax
    thorax lowerneck lclavicle rclavicle
    lowerneck upperneck
    upperneck head
    lclavicle lhumerus
    lhumerus lradius
    lradius lwrist
    lwrist lhand lthumb
    lhand lfingers
    rclavicle rhumerus
    rhumerus rradius
    rradius rwrist
    rwrist rhand rthumb
    rhand rfingers
  end

#!OML:ASF E:\mmandel\Project 1\Capture day 1\Session 2\Subject.ASF
:FULLY-SPECIFIED
:DEGREES
1670
root 8.53197 15.2088 -1.22077 730.004 74.9394 711.558
lowerback 17.3534 2.94926 -6.09886
upperback 1.88803 2.64978 -2.27012
thorax -7.8596 1.47947 0.369557
lowerneck -16.3142 1.86731 3.16384
upperneck 8.33911 2.95525 -8.6846
head 5.35969 0.943109 -2.98157
rclavicle 3.06128e-014 -1.11319e-014
rhumerus -13.7903 6.87211 -85.4934
rradius 68.3015
rwrist -18.5735
rhand -7.76614 27.7774
rfingers 7.12502
rthumb 18.1339 -1.39734
lclavicle 3.06128e-014 -1.11319e-014
lhumerus -15.4462 -8.53484 73.0557
lradius 63.5778
lwrist 24.4193
lhand -17.0286 -32.7575
lfingers 7.12502
lthumb 9.20774 -2.97855
rfemur -38.8248 -11.3159 12.7075
rtibia 59.6098
rfoot -30.4623 -3.35787
rtoes -20.0628
lfemur -55.3589 16.6357 -19.1821
ltibia 56.3821
lfoot -17.7925 -0.524939
ltoes 0.596093
1671
root 8.51035 15.2091 -1.19204 730.486 74.853 712.027
lowerback 17.3621 2.96825 -6.21052
upperback 1.86754 2.65134 -2.26949
thorax -7.89193 1.48438 0.431123
lowerneck -16.2168 1.92219 3.12659
upperneck 8.29636 3.05798 -8.84135
head 5.33987 0.985058 -3.01527
rclavicle -3.93594e-014 2.54444e-014
rhumerus -13.3807 6.65646 -85.592
rradius 68.3087
rwrist -18.7633
rhand -8.04551 27.883
rfingers 7.12502
rthumb 17.865 -1.31644
lclavicle -3.93594e-014 2.54444e-014
lhumerus -15.6853 -7.73298 73.3017
lradius 63.6261
lwrist 24.4241
lhand -17.2246 -32.5122
lfingers 7.12502
lthumb 9.01859 -2.72497
rfemur -38.8764 -11.3375 12.7957
rtibia 59.5189
rfoot -30.718 -3.8223
rtoes -21.7092
lfemur -55.3571 16.6761 -19.1815
ltibia 56.2695
lfoot -17.6853 -0.461844
ltoes 0.315786
1672
root 8.49194 15.2097 -1.16482 731.157 74.7275 712.722
lowerback 17.3147 2.97208 -6.29998
upperback 1.87952 2.64011 -2.33827
thorax -7.8528 1.4806 0.412531
lowerneck -16.1128 2.0233 3.07666
upperneck 8.30541 3.20761 -8.84891
head 5.33462 1.05806 -2.99532
rclavicle -3.97569e-015 0
rhumerus -12.9541 6.3797 -85.7921
rradius 68.3705
rwrist -18.8792
rhand -8.33012 27.7967
rfingers 7.12502
rthumb 17.5912 -1.42751
lclavicle -3.97569e-015 0
lhumerus -15.9293 -7.00864 73.4211
lradius 63.8167
lwrist 24.5176
lhand -17.3956 -32.2179
lfingers 7.12502
lthumb 8.85359 -2.42361
rfemur -38.8667 -11.2719 12.7377
rtibia 59.4522
rfoot -31.123 -4.00954
rtoes -22.3818
lfemur -55.2789 16.6857 -19.2294
ltibia 56.1331
lfoot -17.6263 -0.369489
ltoes 0.130459
1673
root 8.46953 15.2081 -1.1356 731.82 74.7161 713.445
lowerback 17.3221 2.91791 -6.34054
upperback 1.89326 2.55842 -2.39967
thorax -7.83595 1.44206 0.389297
lowerneck -16.1097 2.03139 3.05994
upperneck 8.37876 3.22434 -8.82887
head 5.35743 1.06521 -2.98503
rclavicle 1.15295e-014 -6.36111e-015
rhumerus -12.432 6.12493 -85.9734
rradius 68.2958
rwrist -18.8769
rhand -8.48776 27.6491
rfingers 7.12502
rthumb 17.4395 -1.5886
lclavicle 1.15295e-014 -6.36111e-015
lhumerus -16.1974 -6.25587 73.5248
lradius 64.025
lwrist 24.7149
lhand -17.283 -32.1267
lfingers 7.12502
lthumb 8.96228 -2.3371
rfemur -38.795 -11.2218 12.6775
rtibia 59.3983
rfoot -31.4592 -4.28208
rtoes -22.2274
lfemur -55.2124 16.6391 -19.2704
ltibia 55.9883
lfoot -17.5337 -0.368826
ltoes 0.294736
1674
root 8.44532 15.2012 -1.10302 732.086 74.7739 713.745
lowerback 17.3206 2.86411 -6.30699
upperback 1.92542 2.49805 -2.38514
thorax -7.7957 1.41149 0.402288
lowerneck -16.2151 1.99153 2.93338
upperneck 8.47576 3.19244 -8.7384
head 5.39934 1.047 -2.93897
rclavicle 2.42517e-014 -1.66979e-014
rhumerus -11.8323 5.93924 -86.0552
rradius 68.0879
rwrist -18.8775
rhand -8.78563 27.5591
rfingers 7.12502
rthumb 17.1528 -1.70377
lclavicle 2.42517e-014 -1.66979e-014
lhumerus -16.3457 -5.46407 73.725
lradius 64.1056
lwrist 24.8201
lhand -16.9818 -32.043
lfingers 7.12502
lthumb 9.25294 -2.266
rfemur -38.7112 -11.1576 12.7483
rtibia 59.3514
rfoot -31.8395 -4.29388
rtoes -21.6454
lfemur -55.2023 16.5669 -19.1707
ltibia 55.8681
lfoot -17.3748 -0.329673
ltoes 0.2617
1675
root 8.42077 15.1945 -1.0695 731.924 74.7511 713.611
lowerback 17.2839 2.85477 -6.21686
upperback 1.97928 2.51148 -2.36133
thorax -7.71482 1.41369 0.377903
lowerneck -16.2918 2.01326 3.01152
upperneck 8.43861 3.21817 -8.85826
head 5.40571 1.0532 -2.98717
rclavicle 3.61788e-014 -1.74931e-014
rhumerus -11.3091 5.68079 -86.1734
rradius 68.0159
rwrist -18.863
rhand -9.04965 27.5562
rfingers 7.12502
rthumb 16.8986 -1.72857
lclavicle 3.61788e-014 -1.74931e-014
lhumerus -16.355 -4.80087 73.8989
lradius 64.077
lwrist 24.8663
lhand -16.915 -31.8464
lfingers 7.12502
lthumb 9.31739 -2.07231
rfemur -38.6824 -10.9878 12.9457
rtibia 59.3025
rfoot -32.2824 -4.29038
rtoes -21.2919
lfemur -55.1833 16.5549 -18.9349
ltibia 55.7742
lfoot -17.2113 -0.242195
ltoes 0.195795
1676
root 8.39415 15.1923 -1.03536 732.369 74.665 714.092
lowerback 17.3135 2.89099 -6.31326
upperback 1.98584 2.53775 -2.38353
thorax -7.7285 1.42937 0.400363
lowerneck -16.2909 2.08075 3.24807
upperneck 8.40652 3.30281 -9.20383
head 5.41235 1.07973 -3.12776
rclavicle -4.37326e-015 2.62396e-014
rhumerus -10.9144 5.43834 -86.236
rradius 68.0896
rwrist -18.9233
rhand -9.20861 27.4442
rfingers 7.12502
rthumb 16.7456 -1.8536
lclavicle -4.37326e-015 2.62396e-014
lhumerus -16.4144 -4.39165 74.0613
lradius 64.0306
lwrist 25.2905
lhand -17.1358 -31.7769
lfingers 7.12502
lthumb 9.10427 -1.99339
rfemur -38.7414 -10.8864 13.0071
rtibia 59.2402
rfoot -32.5841 -4.56322
rtoes -21.5722
lfemur -55.1401 16.5577 -18.8949
ltibia 55.6728
lfoot -17.0979 -0.141991
ltoes 0.0669101
1677
root 8.3656 15.1825 -1.00127 733.126 74.6546 714.886
lowerback 17.4531 2.91161 -6.4793
upperback 1.92886 2.51727 -2.38432
thorax -7.87332 1.42769 0.488786
lowerneck -16.299 2.13164 3.31798
upperneck 8.52213 3.38591 -9.35586
head 5.46008 1.10921 -3.18042
rclavicle 3.57812e-015 2.38542e-014
rhumerus -10.5992 5.35479 -86.2124
rradius 68.1269
rwrist -19.0574
rhand -9.4799 27.4083
rfingers 7.12502
rthumb 16.4844 -1.9114
lclavicle 3.57812e-015 2.38542e-014
lhumerus -16.6741 -3.99659 74.3257
lradius 64.0874
lwrist 25.9269
lhand -17.368 -31.7964
lfingers 7.12502
lthumb 8.88024 -2.00327
rfemur -38.7968 -10.921 12.9827
rtibia 59.2005
rfoot -32.9226 -4.70968
rtoes -21.6556
lfemur -55.1654 16.521 -18.9641
ltibia 55.6233
lfoot -16.9579 -0.0404835
ltoes -0.407598
1678
root 8.33627 15.1744 -0.967057 733.283 74.7163 715.099
lowerback 17.5956 2.89778 -6.45395
upperback 1.88888 2.49159 -2.33662
thorax -7.9949 1.4174 0.524419
lowerneck -16.0429 2.07202 3.32384
upperneck 8.32477 3.29769 -9.39374
head 5.35129 1.07533 -3.20093
rclavicle -3.85642e-014 -3.18055e-015
rhumerus -10.3366 5.30807 -86.1919
rradius 68.1496
rwrist -19.1606
rhand -9.67182 27.5946
rfingers 7.12502
rthumb 16.2997 -1.7403
lclavicle -3.85642e-014 -3.18055e-015
lhumerus -16.9609 -3.50108 74.5739
lradius 64.2146
lwrist 26.2341
lhand -17.3547 -31.7298
lfingers 7.12502
lthumb 8.89312 -1.9372
rfemur -38.7976 -10.9389 13.119
rtibia 59.2003
rfoot -33.3244 -4.79697
rtoes -21.4913
lfemur -55.1947 16.5226 -18.8699
ltibia 55.5992
lfoot -16.8206 -0.0194318
ltoes -0.79426
